<svg xmlns="http://www.w3.org/2000/svg" version="1.1" xmlns:xlink="http://www.w3.org/1999/xlink" xmlns:svgjs="http://svgjs.dev/svgjs" viewBox="0 0 800 800"><defs><linearGradient x1="50%" y1="0%" x2="50%" y2="100%" id="nnneon-grad"><stop stop-color="hsl(206, 75%, 49%)" stop-opacity="1" offset="0%"></stop><stop stop-color="hsl(331, 90%, 56%)" stop-opacity="1" offset="100%"></stop></linearGradient><filter id="nnneon-filter" x="-100%" y="-100%" width="400%" height="400%" filterUnits="objectBoundingBox" primitiveUnits="userSpaceOnUse" color-interpolation-filters="sRGB">
    <feGaussianBlur stdDeviation="17 8" x="0%" y="0%" width="100%" height="100%" in="SourceGraphic" edgeMode="none" result="blur"></feGaussianBlur></filter><filter id="nnneon-filter2" x="-100%" y="-100%" width="400%" height="400%" filterUnits="objectBoundingBox" primitiveUnits="userSpaceOnUse" color-interpolation-filters="sRGB">
    <feGaussianBlur stdDeviation="10 17" x="0%" y="0%" width="100%" height="100%" in="SourceGraphic" edgeMode="none" result="blur"></feGaussianBlur></filter></defs><g stroke-width="27" stroke="url(#nnneon-grad)" fill="none" transform="rotate(46, 400, 400)"><path d="M400 209.47467041015625L565.0000105433935 304.7373319968242V495.2626551701601L400 590.525316756828L234.99998945660644 495.2626551701601V304.7373319968242L400 209.47467041015625Z " filter="url(#nnneon-filter)"></path><path d="M412 209.47467041015625L577.0000105433935 304.7373319968242V495.2626551701601L412 590.525316756828L246.99998945660644 495.2626551701601V304.7373319968242L412 209.47467041015625Z " filter="url(#nnneon-filter2)" opacity="0.25"></path><path d="M388 209.47467041015625L553.0000105433935 304.7373319968242V495.2626551701601L388 590.525316756828L222.99998945660644 495.2626551701601V304.7373319968242L388 209.47467041015625Z " filter="url(#nnneon-filter2)" opacity="0.25"></path><path d="M400 209.47467041015625L565.0000105433935 304.7373319968242V495.2626551701601L400 590.525316756828L234.99998945660644 495.2626551701601V304.7373319968242L400 209.47467041015625Z "></path></g></svg>