<svg width="31" height="39" viewBox="0 0 31 39" fill="none" xmlns="http://www.w3.org/2000/svg">
<path d="M0 6.90099C0 3.08968 3.56671 0 7.96648 0H11.6034C13.0381 0 14.2011 1.0075 14.2011 2.25032V36.7553C14.2011 37.9981 13.0381 39.0056 11.6034 39.0056H7.96648C3.56671 39.0056 0 35.9159 0 32.1046V6.90099Z" fill="#21141F"/>
<path d="M26.4323 14.4021C27.6159 14.4021 28.5754 15.2376 28.5754 16.2682L28.5754 18.8808C28.5754 22.0414 25.6329 24.6035 22.0031 24.6035L19.2884 24.6035C18.1048 24.6035 17.1452 23.768 17.1452 22.7374L17.1452 20.1248C17.1452 16.9642 20.0878 14.4021 23.7176 14.4021L26.4323 14.4021Z" fill="#21141F"/>
<path d="M28.4022 26.7038C29.8369 26.7038 31 27.7113 31 28.9541L31 33.0047C31 36.3189 27.8985 39.0056 24.0726 39.0056L19.743 39.0056C18.3083 39.0056 17.1453 37.9981 17.1453 36.7553L17.1453 28.9541C17.1453 27.7113 18.3083 26.7038 19.743 26.7038L28.4022 26.7038Z" fill="#21141F"/>
<path d="M24.0726 -2.62306e-07C27.8985 -1.17438e-07 31 2.68668 31 6.00086L31 10.0514C31 11.2943 29.8369 12.3018 28.4022 12.3018L19.743 12.3018C18.3083 12.3018 17.1453 11.2943 17.1453 10.0514L17.1453 2.25032C17.1453 1.0075 18.3083 -4.80572e-07 19.743 -4.26247e-07L24.0726 -2.62306e-07Z" fill="#21141F"/>
</svg>
