<svg xmlns="http://www.w3.org/2000/svg" version="1.1" xmlns:xlink="http://www.w3.org/1999/xlink" xmlns:svgjs="http://svgjs.dev/svgjs" viewBox="0 0 1422 800"><defs><filter id="llleaves-blur-2" x="-100%" y="-100%" width="400%" height="400%"><feGaussianBlur in="SourceGraphic" stdDeviation="2"></feGaussianBlur></filter><filter id="llleaves-blur-3" x="-100%" y="-100%" width="400%" height="400%"><feGaussianBlur in="SourceGraphic" stdDeviation="4"></feGaussianBlur></filter><filter id="llleaves-blur-4" x="-100%" y="-100%" width="400%" height="400%"><feGaussianBlur in="SourceGraphic" stdDeviation="12"></feGaussianBlur></filter></defs><g fill="hsl(197, 68%, 66%)"><path d="M882 716H932C960 716 982 738 982 766H932C904 766 882 744 882 716Z " transform="matrix(-0.22169270222969947,0.2140861539998679,-0.2140861539998679,-0.22169270222969947,1297.255438591982,705.7459968243304)" filter="url(#llleaves-blur-2)" opacity="0.47"></path><path d="M796 335H846C874 335 896 357 896 385H846C818 385 796 363 796 335Z " transform="matrix(-0.3565781965581548,0.05647643809379589,-0.05647643809379589,-0.3565781965581548,1167.9966720019656,440.5890841335844)" filter="url(#llleaves-blur-2)" opacity="0.55"></path><path d="M1285 577H1335C1363 577 1385 599 1385 627H1335C1307 627 1285 605 1285 577Z " transform="matrix(-0.2635416223154855,-0.3763764426034435,0.3763764426034435,-0.2635416223154855,1460.2494473439,1263.1146075095194)" opacity="0.71"></path><path d="M630 46H680C708 46 730 68 730 96H680C652 96 630 74 630 46Z " transform="matrix(-0.33103330044811774,0.10755923942457887,-0.10755923942457887,-0.33103330044811774,912.7393503038652,21.36308152310272)" filter="url(#llleaves-blur-2)" opacity="0.53"></path><path d="M802 45H852C880 45 902 67 902 95H852C824 95 802 73 802 45Z " transform="matrix(-0.3537930990097735,-0.23863645848216805,0.23863645848216805,-0.3537930990097735,1136.7271682625753,298.0837795574913)" opacity="0.65"></path><path d="M486 350H536C564 350 586 372 586 400H536C508 400 486 378 486 350Z " transform="matrix(-0.2747748855320951,-0.36463858895670775,0.36463858895670775,-0.2747748855320951,546.5398677864375,673.4868657553311)" opacity="0.70"></path><path d="M1132 569H1182C1210 569 1232 591 1232 619H1182C1154 619 1132 597 1132 569Z " transform="matrix(-0.16659871223999367,0.23792761881135024,-0.23792761881135024,-0.16659871223999367,1520.2486834416147,411.72918963554025)" filter="url(#llleaves-blur-3)" opacity="0.44"></path><path d="M433 520H483C511 520 533 542 533 570H483C455 570 433 548 433 520Z " transform="matrix(-0.2393132792892228,-0.39828418057507237,0.39828418057507237,-0.2393132792892228,381.5234354832802,867.7969964303866)" opacity="0.71"></path><path d="M1030 173H1080C1108 173 1130 195 1130 223H1080C1052 223 1030 201 1030 173Z " transform="matrix(-0.04387117587408535,0.24880580213995138,-0.24880580213995138,-0.04387117587408535,1176.6444187677225,-62.023773488078575)" filter="url(#llleaves-blur-3)" opacity="0.39"></path><path d="M595 572H645C673 572 695 594 695 622H645C617 622 595 600 595 572Z " transform="matrix(-0.35335675785807324,-0.23834214265909737,0.23834214265909737,-0.35335675785807324,730.6248496509761,961.6846664563875)" opacity="0.65"></path><path d="M38 174H88C116 174 138 196 138 224H88C60 224 38 202 38 174Z " transform="matrix(-0.26280910953083186,0.1840209196036699,-0.1840209196036699,-0.26280910953083186,147.7473646398435,235.10517187151257)" filter="url(#llleaves-blur-2)" opacity="0.49"></path><path d="M65 566H115C143 566 165 588 165 616H115C87 616 65 594 65 566Z " transform="matrix(-0.19686515868528118,0.22646745903409807,-0.22646745903409807,-0.19686515868528118,271.4817615379593,681.3035509940798)" filter="url(#llleaves-blur-2)" opacity="0.46"></path><path d="M1168 708H1218C1246 708 1268 730 1268 758H1218C1190 758 1168 736 1168 708Z " transform="matrix(-0.32296139632058196,0.11754833507774211,-0.11754833507774211,-0.32296139632058196,1697.529910330454,826.5568313782967)" filter="url(#llleaves-blur-2)" opacity="0.53"></path><path d="M37 306H87C115 306 137 328 137 356H87C59 356 37 334 37 306Z " transform="matrix(-0.26280910953083186,0.1840209196036699,-0.1840209196036699,-0.26280910953083186,170.7753169179971,401.97999524918606)" filter="url(#llleaves-blur-2)" opacity="0.49"></path><path d="M965 43H1015C1043 43 1065 65 1065 93H1015C987 93 965 71 965 43Z " transform="matrix(-0.37358310027818586,0.006520917271440527,-0.006520917271440527,-0.37358310027818586,1394.6302691568167,86.7849197884045)" filter="url(#llleaves-blur-2)" opacity="0.57"></path><path d="M1292 173H1342C1370 173 1392 195 1392 223H1342C1314 223 1292 201 1292 173Z " transform="matrix(-0.2635416223154855,-0.3763764426034435,0.3763764426034435,-0.2635416223154855,1621.1503215118996,755.2784271922873)" opacity="0.71"></path><path d="M1293 40H1343C1371 40 1393 62 1393 90H1343C1315 90 1293 68 1293 40Z " transform="matrix(-0.34427460435144186,-0.2594295224565659,0.2594295224565659,-0.34427460435144186,1788.4978746843096,435.79169794201175)" opacity="0.66"></path><path d="M1023 490H1073C1101 490 1123 512 1123 540H1073C1045 540 1023 518 1023 490Z " transform="matrix(-0.04387117587408535,0.24880580213995138,-0.24880580213995138,-0.04387117587408535,1248.2087598149685,270.6250298789861)" filter="url(#llleaves-blur-3)" opacity="0.39"></path><path d="M473 691H523C551 691 573 713 573 741H523C495 741 473 719 473 691Z " transform="matrix(-0.24533425331135422,-0.39261687673066376,0.39261687673066376,-0.24533425331135422,370.196130742683,1096.9979519010667)" opacity="0.71"></path><path d="M618 434H668C696 434 718 456 718 484H668C640 484 618 462 618 434Z " transform="matrix(-0.3685907265652656,-0.19598316573770894,0.19598316573770894,-0.3685907265652656,824.262332271989,759.0998982062465)" opacity="0.64"></path><path d="M170 405H220C248 405 270 427 270 455H220C192 455 170 433 170 405Z " transform="matrix(-0.16714291319707858,0.23870481832347823,-0.23870481832347823,-0.16714291319707858,359.414512782453,449.35639264357854)" filter="url(#llleaves-blur-3)" opacity="0.45"></path></g><g fill="none" stroke-width="3" stroke="hsl(197, 68%, 66%)"><path d="M616 712H666C694 712 716 734 716 762H666C638 762 616 740 616 712Z " transform="matrix(-0.3685907265652656,-0.19598316573770894,0.19598316573770894,-0.3685907265652656,767.0418307437753,1139.1761538599148)" opacity="0.64"></path><path d="M1155 243H1205C1233 243 1255 265 1255 293H1205C1177 293 1155 271 1155 243Z " transform="matrix(-0.24492946167585922,0.19833996732415934,-0.19833996732415934,-0.24492946167585922,1553.295112562285,94.64143510351829)" filter="url(#llleaves-blur-2)" opacity="0.48"></path><path d="M1154 406H1204C1232 406 1254 428 1254 456H1204C1176 456 1154 434 1154 406Z " transform="matrix(-0.24492946167585922,0.19833996732415934,-0.19833996732415934,-0.24492946167585922,1584.3795977744473,297.76327732400745)" filter="url(#llleaves-blur-2)" opacity="0.48"></path><path d="M650 299H700C728 299 750 321 750 349H700C672 349 650 327 650 299Z " transform="matrix(-0.377409949827597,-0.1602010190887453,0.1602010190887453,-0.377409949827597,912.2818346945644,558.4215371062631)" opacity="0.63"></path><path d="M16 446H66C94 446 116 468 116 496H66C38 496 16 474 16 446Z " transform="matrix(-0.26280910953083186,0.1840209196036699,-0.1840209196036699,-0.26280910953083186,170.01925436236343,582.6377098951797)" filter="url(#llleaves-blur-2)" opacity="0.49"></path><path d="M466 51H516C544 51 566 73 566 101H516C488 101 466 79 466 51Z " transform="matrix(-0.2305901738869992,0.20762432514319634,-0.20762432514319634,-0.2305901738869992,650.7639784365745,-13.609298558477363)" filter="url(#llleaves-blur-2)" opacity="0.47"></path><path d="M1297 315H1347C1375 315 1397 337 1397 365H1347C1319 365 1297 343 1297 315Z " transform="matrix(-0.2635416223154855,-0.3763764426034435,0.3763764426034435,-0.2635416223154855,1574.0225747737882,936.5832197741034)" opacity="0.71"></path><path d="M1308 707H1358C1386 707 1408 729 1408 757H1358C1330 757 1308 735 1308 707Z " transform="matrix(-0.2635416223154855,-0.3763764426034435,0.3763764426034435,-0.2635416223154855,1440.3819671187086,1436.0316765904117)" opacity="0.71"></path><path d="M749 679H799C827 679 849 701 849 729H799C771 729 749 707 749 679Z " transform="matrix(-0.38342917163343077,-0.04707918247637534,0.04707918247637534,-0.38342917163343077,1072.2161636717428,1011.550403628559)" filter="url(#llleaves-blur-2)" opacity="0.59"></path><path d="M893 432H943C971 432 993 454 993 482H943C915 482 893 460 893 432Z " transform="matrix(-0.22169270222969947,0.2140861539998679,-0.2140861539998679,-0.22169270222969947,1249.8935905805463,356.4303216970972)" filter="url(#llleaves-blur-2)" opacity="0.47"></path><path d="M23 41H73C101 41 123 63 123 91H73C45 91 23 69 23 41Z " transform="matrix(-0.20204458625803712,0.2243932460516624,-0.2243932460516624,-0.20204458625803712,102.55920903624641,62.9542357312591)" filter="url(#llleaves-blur-2)" opacity="0.46"></path><path d="M378 213H428C456 213 478 235 478 263H428C400 263 378 241 378 213Z " transform="matrix(-0.29523748471193684,-0.33963187504000764,0.33963187504000764,-0.29523748471193684,473.5292571971872,453.62896387856426)" opacity="0.69"></path><path d="M178 696H228C256 696 278 718 278 746H228C200 746 178 724 178 696Z " transform="matrix(-0.16714291319707858,0.23870481832347823,-0.23870481832347823,-0.16714291319707858,438.2147582201617,787.0853418373406)" filter="url(#llleaves-blur-3)" opacity="0.45"></path><path d="M1024 692H1074C1102 692 1124 714 1124 742H1074C1046 742 1024 720 1024 692Z " transform="matrix(-0.04387117587408535,0.24880580213995138,-0.24880580213995138,-0.04387117587408535,1299.5114030231127,481.2382016034114)" filter="url(#llleaves-blur-3)" opacity="0.39"></path><path d="M901 582H951C979 582 1001 604 1001 632H951C923 632 901 610 901 582Z " transform="matrix(-0.16219809983149883,0.2404685719771131,-0.2404685719771131,-0.16219809983149883,1251.214816129863,476.7686346474852)" filter="url(#llleaves-blur-3)" opacity="0.44"></path><path d="M331 691H381C409 691 431 713 431 741H381C353 741 331 719 331 691Z " transform="matrix(-0.37598831738654115,-0.16740078424137814,0.16740078424137814,-0.37598831738654115,404.39258740744543,1048.9873340447286)" opacity="0.63"></path><path d="M879 199H929C957 199 979 221 979 249H929C901 249 879 227 879 199Z " transform="matrix(-0.22169270222969947,0.2140861539998679,-0.2140861539998679,-0.22169270222969947,1182.9078188673611,74.77312823357539)" filter="url(#llleaves-blur-2)" opacity="0.47"></path><path d="M257 542H307C335 542 357 564 357 592H307C279 592 257 570 257 542Z " transform="matrix(-0.3522460628726431,0.06846969859372863,-0.06846969859372863,-0.3522460628726431,453.9618604045455,745.7033201805141)" filter="url(#llleaves-blur-2)" opacity="0.55"></path><path d="M1137 56H1187C1215 56 1237 78 1237 106H1187C1159 106 1137 84 1137 56Z " transform="matrix(-0.34338699908662745,0.08561599468458195,-0.08561599468458195,-0.34338699908662745,1601.535263485278,7.188161235418065)" filter="url(#llleaves-blur-2)" opacity="0.54"></path><path d="M754 510H804C832 510 854 532 854 560H804C776 560 754 538 754 510Z " transform="matrix(-0.37491874715153584,4.5914304363946424e-17,-4.5914304363946424e-17,-0.37491874715153584,1105.4346727098348,735.5815297260717)" filter="url(#llleaves-blur-2)" opacity="0.57"></path><path d="M1000 324H1050C1078 324 1100 346 1100 374H1050C1022 374 1000 352 1000 324Z " transform="matrix(-0.04844529453410499,0.24922943455029434,-0.24922943455029434,-0.04844529453410499,1187.848631918863,104.21650151459357)" filter="url(#llleaves-blur-3)" opacity="0.39"></path><path d="M543 190H593C621 190 643 212 643 240H593C565 240 543 218 543 190Z " transform="matrix(-0.3343268967751087,-0.28053357577663823,0.28053357577663823,-0.3343268967751087,730.9411309956622,453.23669324219486)" opacity="0.67"></path><path d="M721 173H771C799 173 821 195 821 223H771C743 223 721 201 721 173Z " transform="matrix(-0.38342917163343077,-0.04707918247637534,0.04707918247637534,-0.38342917163343077,1057.3022131990529,310.2170256727047)" filter="url(#llleaves-blur-2)" opacity="0.59"></path><path d="M313 59H363C391 59 413 81 413 109H363C335 109 313 87 313 59Z " transform="matrix(-0.053057234638052765,0.2496146636038465,-0.2496146636038465,-0.053057234638052765,403.22740791633623,-2.15331517859984)" filter="url(#llleaves-blur-3)" opacity="0.39"></path><path d="M210 231H260C288 231 310 253 310 281H260C232 281 210 259 210 231Z " transform="matrix(-0.2260635976623671,0.210807715246712,-0.210807715246712,-0.2260635976623671,372.74331049537375,259.0622750374208)" filter="url(#llleaves-blur-2)" opacity="0.47"></path><path d="M170 60H220C248 60 270 82 270 110H220C192 110 170 88 170 60Z " transform="matrix(0.07051801381022497,0.19374665060838228,-0.19374665060838228,0.07051801381022497,220.954502263463,36.38170569228677)" filter="url(#llleaves-blur-3)" opacity="0.31"></path><path d="M327 377H377C405 377 427 399 427 427H377C349 427 327 405 327 377Z " transform="matrix(-0.37598831738654115,-0.16740078424137814,0.16740078424137814,-0.37598831738654115,451.45248038969197,616.2573992483891)" opacity="0.63"></path><path d="M1300 452H1350C1378 452 1400 474 1400 502H1350C1322 502 1300 480 1300 452Z " transform="matrix(-0.2635416223154855,-0.3763764426034435,0.3763764426034435,-0.2635416223154855,1526.2496270040629,1110.8175513591355)" opacity="0.71"></path><path d="M21 701H71C99 701 121 723 121 751H71C43 751 21 729 21 701Z " transform="matrix(-0.26280910953083186,0.1840209196036699,-0.1840209196036699,-0.26280910953083186,223.25863440895344,903.7339282275235)" filter="url(#llleaves-blur-2)" opacity="0.49"></path></g></svg>